<svg width="200" height="200" viewBox="0 0 200 200" xmlns="http://www.w3.org/2000/svg">
  <defs>
    <linearGradient id="grad1" x1="0%" y1="0%" x2="100%" y2="100%">
      <stop offset="0%" style="stop-color:#16a34a;stop-opacity:1" />
      <stop offset="100%" style="stop-color:#000000;stop-opacity:1" />
    </linearGradient>
  </defs>
  <path d="M100 20 C60 20 30 50 30 90 C30 130 60 160 100 160 C140 160 170 130 170 90 C170 50 140 20 100 20 Z" fill="url(#grad1)"/>
  <circle cx="80" cy="80" r="15" fill="white"/>
  <circle cx="120" cy="80" r="15" fill="white"/>
  <path d="M80 80 L80 90 M120 80 L120 90" stroke="black" stroke-width="5"/>
  <path d="M60 120 L140 120 L130 150 L70 150 Z" fill="#16a34a"/>
  <circle cx="140" cy="140" r="15" fill="white" stroke="black" stroke-width="2"/>
  <path d="M140 130 L140 150 M130 140 L150 140" stroke="black" stroke-width="2"/>
</svg>
